<?xml version="1.0" encoding="UTF-8"?>
<svg id="_圖層_1" data-name="圖層_1" xmlns="http://www.w3.org/2000/svg" version="1.1" viewBox="0 0 36 36">
  <!-- Generator: Adobe Illustrator 29.8.4, SVG Export Plug-In . SVG Version: 2.1.1 Build 6)  -->
  <defs>
    <style>
      .st0 {
        fill: #d05198;
      }

      .st1 {
        fill: #e8cdce;
      }

      .st2 {
        fill: #f8e08d;
      }

      .st3 {
        fill: #f5e0a9;
      }

      .st4 {
        fill: #f7c865;
      }

      .st5 {
        fill: #949bcd;
      }

      .st6 {
        fill: #eaee99;
      }

      .st7 {
        fill: #8e7db9;
      }

      .st8 {
        fill: #f7e788;
      }

      .st9 {
        fill: #9473b1;
      }

      .st10 {
        fill: #e84c8b;
      }

      .st11 {
        fill: #956aab;
      }

      .st12 {
        fill: #ad66a6;
      }

      .st13 {
        fill: #e95279;
      }

      .st14 {
        fill: #f7c36b;
      }

      .st15 {
        fill: #b5dbb8;
      }

      .st16 {
        fill: #f7d673;
      }

      .st17 {
        fill: #db4e96;
      }

      .st18 {
        fill: #a466a7;
      }

      .st19 {
        fill: #9b6fae;
      }

      .st20 {
        fill: #f6de78;
      }

      .st21 {
        fill: #b7ddc8;
      }

      .st22 {
        fill: #f9d190;
      }

      .st23 {
        fill: #a468a8;
      }

      .st24 {
        fill: #e85297;
      }

      .st25 {
        fill: #cee3a1;
      }

      .st26 {
        fill: #acc1e4;
      }

      .st27 {
        fill: #f8d578;
      }

      .st28 {
        fill: #e95c9c;
      }

      .st29 {
        fill: #9979b5;
      }

      .st30 {
        fill: #b464a4;
      }

      .st31 {
        fill: #e55097;
      }

      .st32 {
        fill: #95d2d5;
      }

      .st33 {
        fill: #c65c9e;
      }

      .st34 {
        fill: #aba1ce;
      }

      .st35 {
        fill: #96bfe6;
      }

      .st36 {
        fill: #9ad4d3;
      }

      .st37 {
        fill: #97d2c5;
      }

      .st38 {
        fill: #d0e6b9;
      }

      .st39 {
        fill: #c15b9e;
      }

      .st40 {
        fill: #e84890;
      }

      .st41 {
        fill: #f7e07c;
      }

      .st42 {
        fill: #f0f095;
      }

      .st43 {
        fill: #f9ceb6;
      }

      .st44 {
        fill: #e1dfcc;
      }

      .st45 {
        fill: #dc609f;
      }

      .st46 {
        fill: #869ccf;
      }

      .st47 {
        fill: #d95499;
      }

      .st48 {
        fill: #f7eb8e;
      }

      .st49 {
        fill: #c4d4e0;
      }

      .st50 {
        fill: #f7e686;
      }

      .st51 {
        fill: #e7ec98;
      }

      .st52 {
        fill: #f3f093;
      }

      .st53 {
        fill: #ce559a;
      }

      .st54 {
        fill: #e9558a;
      }

      .st55 {
        fill: #cac4e1;
      }

      .st56 {
        fill: #e74a94;
      }
    </style>
  </defs>
  <rect class="st42" x="12.1" y="1.59" width="2.59" height="2.59" rx=".19" ry=".19"/>
  <rect class="st51" x="15.17" y="1.59" width="2.59" height="2.59" rx=".19" ry=".19" transform="translate(19.35 -13.58) rotate(90)"/>
  <rect class="st25" x="18.24" y="1.59" width="2.59" height="2.59" rx=".19" ry=".19" transform="translate(22.42 -16.65) rotate(90)"/>
  <rect class="st15" x="21.31" y="1.59" width="2.59" height="2.59" rx=".19" ry=".19" transform="translate(25.49 -19.72) rotate(90)"/>
  <rect class="st37" x="24.38" y="1.59" width="2.59" height="2.59" rx=".19" ry=".19" transform="translate(28.56 -22.79) rotate(90)"/>
  <rect class="st32" x="27.45" y="1.59" width="2.59" height="2.59" rx=".19" ry=".19" transform="translate(31.63 -25.86) rotate(90)"/>
  <rect class="st48" x="9.03" y="4.61" width="2.59" height="2.59" rx=".19" ry=".19" transform="translate(16.23 -4.41) rotate(90)"/>
  <rect class="st52" x="12.1" y="4.61" width="2.59" height="2.59" rx=".19" ry=".19" transform="translate(19.3 -7.49) rotate(90)"/>
  <rect class="st6" x="15.17" y="4.61" width="2.59" height="2.59" rx=".19" ry=".19" transform="translate(22.37 -10.56) rotate(90)"/>
  <rect class="st38" x="18.24" y="4.61" width="2.59" height="2.59" rx=".19" ry=".19" transform="translate(25.44 -13.63) rotate(90)"/>
  <rect class="st21" x="21.31" y="4.61" width="2.59" height="2.59" rx=".19" ry=".19" transform="translate(28.51 -16.7) rotate(90)"/>
  <rect class="st36" x="24.38" y="4.61" width="2.59" height="2.59" rx=".19" ry=".19" transform="translate(31.59 -19.77) rotate(90)"/>
  <rect class="st8" x="12.1" y="7.64" width="2.59" height="2.59" rx=".19" ry=".19" transform="translate(22.33 -4.46) rotate(90)"/>
  <rect class="st50" x="9.03" y="7.64" width="2.59" height="2.59" rx=".19" ry=".19" transform="translate(19.25 -1.39) rotate(90)"/>
  <rect class="st46" x="30.52" y="16.7" width="2.59" height="2.59" rx=".19" ry=".19" transform="translate(49.82 -13.82) rotate(90)"/>
  <rect class="st41" x="9.03" y="10.66" width="2.59" height="2.59" rx=".19" ry=".19" transform="translate(22.28 1.63) rotate(90)"/>
  <rect class="st2" x="12.1" y="10.66" width="2.59" height="2.59" rx=".19" ry=".19" transform="translate(25.35 -1.44) rotate(90)"/>
  <rect class="st3" x="15.17" y="10.66" width="2.59" height="2.59" rx=".19" ry=".19" transform="translate(28.42 -4.51) rotate(90)"/>
  <rect class="st44" x="18.24" y="10.66" width="2.59" height="2.59" rx=".19" ry=".19" transform="translate(31.49 -7.58) rotate(90)"/>
  <rect class="st49" x="21.31" y="10.66" width="2.59" height="2.59" rx=".19" ry=".19" transform="translate(34.56 -10.65) rotate(90)"/>
  <rect class="st16" x="5.96" y="13.68" width="2.59" height="2.59" rx=".19" ry=".19" transform="translate(22.23 7.73) rotate(90)"/>
  <rect class="st27" x="9.03" y="13.68" width="2.59" height="2.59" rx=".19" ry=".19" transform="translate(25.3 4.65) rotate(90)"/>
  <rect class="st22" x="12.1" y="13.68" width="2.59" height="2.59" rx=".19" ry=".19" transform="translate(28.37 1.58) rotate(90)"/>
  <rect class="st43" x="15.17" y="13.68" width="2.59" height="2.59" rx=".19" ry=".19" transform="translate(31.44 -1.49) rotate(90)"/>
  <rect class="st1" x="18.24" y="13.68" width="2.59" height="2.59" rx=".19" ry=".19" transform="translate(34.51 -4.56) rotate(90)"/>
  <rect class="st55" x="21.31" y="13.68" width="2.59" height="2.59" rx=".19" ry=".19" transform="translate(37.58 -7.63) rotate(90)"/>
  <rect class="st26" x="24.38" y="13.68" width="2.59" height="2.59" rx=".19" ry=".19" transform="translate(40.65 -10.7) rotate(90)"/>
  <rect class="st35" x="27.45" y="13.68" width="2.59" height="2.59" rx=".19" ry=".19" transform="translate(43.73 -13.77) rotate(90)"/>
  <rect class="st4" x="2.89" y="16.7" width="2.59" height="2.59" rx=".19" ry=".19" transform="translate(22.18 13.82) rotate(90)"/>
  <rect class="st14" x="5.96" y="16.7" width="2.59" height="2.59" rx=".19" ry=".19" transform="translate(25.25 10.75) rotate(90)"/>
  <rect class="st34" x="24.38" y="16.7" width="2.59" height="2.59" rx=".19" ry=".19" transform="translate(43.68 -7.68) rotate(90)"/>
  <rect class="st5" x="27.45" y="16.7" width="2.59" height="2.59" rx=".19" ry=".19" transform="translate(46.75 -10.75) rotate(90)"/>
  <rect class="st20" x="5.96" y="10.66" width="2.59" height="2.59" rx=".19" ry=".19" transform="translate(19.21 4.7) rotate(90)"/>
  <rect class="st11" x="30.52" y="25.77" width="2.59" height="2.59" rx=".19" ry=".19" transform="translate(58.89 -4.75) rotate(90)"/>
  <rect class="st29" x="27.45" y="19.73" width="2.59" height="2.59" rx=".19" ry=".19" transform="translate(49.77 -7.73) rotate(90)"/>
  <rect class="st7" x="30.52" y="19.73" width="2.59" height="2.59" rx=".19" ry=".19" transform="translate(52.84 -10.8) rotate(90)"/>
  <rect class="st28" x="12.1" y="22.75" width="2.59" height="2.59" rx=".19" ry=".19" transform="translate(37.44 10.65) rotate(90)"/>
  <rect class="st45" x="15.17" y="22.75" width="2.59" height="2.59" rx=".19" ry=".19" transform="translate(40.51 7.58) rotate(90)"/>
  <rect class="st19" x="27.45" y="22.75" width="2.59" height="2.59" rx=".19" ry=".19" transform="translate(52.79 -4.7) rotate(90)"/>
  <rect class="st9" x="30.52" y="22.75" width="2.59" height="2.59" rx=".19" ry=".19" transform="translate(55.86 -7.77) rotate(90)"/>
  <rect class="st54" x="9.03" y="25.77" width="2.59" height="2.59" rx=".19" ry=".19" transform="translate(37.39 16.75) rotate(90)"/>
  <rect class="st24" x="12.1" y="25.77" width="2.59" height="2.59" rx=".19" ry=".19" transform="translate(40.46 13.67) rotate(90)"/>
  <rect class="st12" x="24.38" y="25.77" width="2.59" height="2.59" rx=".19" ry=".19" transform="translate(52.75 1.39) rotate(90)"/>
  <rect class="st23" x="27.45" y="25.77" width="2.59" height="2.59" rx=".19" ry=".19" transform="translate(55.82 -1.68) rotate(90)"/>
  <rect class="st13" x="5.96" y="28.8" width="2.59" height="2.59" rx=".19" ry=".19" transform="translate(37.34 22.84) rotate(90)"/>
  <rect class="st10" x="9.03" y="28.8" width="2.59" height="2.59" rx=".19" ry=".19" transform="translate(40.41 19.77) rotate(90)"/>
  <rect class="st31" x="12.1" y="28.8" width="2.59" height="2.59" rx=".19" ry=".19" transform="translate(43.49 16.7) rotate(90)"/>
  <rect class="st47" x="15.17" y="28.8" width="2.59" height="2.59" rx=".19" ry=".19" transform="translate(46.56 13.63) rotate(90)"/>
  <rect class="st53" x="18.24" y="28.8" width="2.59" height="2.59" rx=".19" ry=".19" transform="translate(49.63 10.56) rotate(90)"/>
  <rect class="st33" x="21.31" y="28.8" width="2.59" height="2.59" rx=".19" ry=".19" transform="translate(52.7 7.49) rotate(90)"/>
  <rect class="st30" x="24.38" y="28.8" width="2.59" height="2.59" rx=".19" ry=".19" transform="translate(55.77 4.41) rotate(90)"/>
  <rect class="st18" x="27.45" y="28.8" width="2.59" height="2.59" rx=".19" ry=".19" transform="translate(58.84 1.34) rotate(90)"/>
  <rect class="st40" x="9.03" y="31.82" width="2.59" height="2.59" rx=".19" ry=".19" transform="translate(43.44 22.79) rotate(90)"/>
  <rect class="st56" x="12.1" y="31.82" width="2.59" height="2.59" rx=".19" ry=".19" transform="translate(46.51 19.72) rotate(90)"/>
  <rect class="st17" x="15.17" y="31.82" width="2.59" height="2.59" rx=".19" ry=".19" transform="translate(49.58 16.65) rotate(90)"/>
  <rect class="st0" x="18.24" y="31.82" width="2.59" height="2.59" rx=".19" ry=".19" transform="translate(52.65 13.58) rotate(90)"/>
  <rect class="st39" x="21.31" y="31.82" width="2.59" height="2.59" rx=".19" ry=".19" transform="translate(55.72 10.51) rotate(90)"/>
</svg>